<svg width="715" height="664" viewBox="0 0 715 664" fill="none" xmlns="http://www.w3.org/2000/svg">
    
    <style>
        /* 1. Cor Padrão (Light Mode/Fundo Claro) */
        .favicon-fill {
            fill: #422918; /* Marrom Escuro da sua logo */
        }

        /* 2. Adaptação para o Dark Mode (Fundo Escuro) */
        @media (prefers-color-scheme: dark) {
            .favicon-fill {
                fill: #A38374; /* Marrom Claro para visibilidade */
            }
        }
    </style>

    <path d="M167.467 2.1394C161.6 5.3394 142.133 19.3394 128 30.5394C109.467 45.0727 77.2 78.1394 63.2 96.6727C22.6667 150.673 3.86667 204.406 3.86667 265.606C3.86667 298.273 7.46667 313.206 16.4 318.673C20.5333 321.206 23.6 321.339 88.2667 321.339H155.867L158.533 317.873C162 313.473 162.133 307.873 158.8 303.873L156.267 300.673L92.5333 300.006L28.8 299.339L27.7333 294.673C25.6 285.206 24.9333 254.939 26.5333 240.406C33.4667 180.939 61.0667 126.273 108.267 78.4061C122.667 63.8727 136.933 51.8727 159.2 35.3394C174.133 24.406 175.333 23.7394 178.133 25.4727C179.867 26.5394 203.6 44.006 230.933 64.2727C258.267 84.6727 288 106.806 296.933 113.339C306.533 120.406 314.267 127.206 315.6 129.739C317.867 133.739 318 145.473 318.4 315.339C318.667 441.873 318.267 497.739 317.333 500.006C316.133 502.539 219.467 581.739 205.467 591.473C203.067 593.206 201.067 591.473 178.4 568.939C144.4 534.939 110.4 495.073 102.4 479.606C100 474.806 99.4667 471.206 98.9333 454.939L98.2667 436.006H123.733C150.8 436.006 154.667 435.339 157.2 429.739C159.467 424.939 158.933 421.873 155.467 417.739L152.267 414.006L123.733 413.606C87.8667 413.206 83.3333 414.139 78.9333 422.673C76 428.406 75.8667 429.739 76.4 452.673C76.8 473.606 77.2 477.606 79.7333 484.139C86.9333 502.406 126.533 549.873 169.2 591.606C178.4 600.539 185.6 608.139 185.333 608.539C184.933 608.806 176.667 615.739 166.933 623.739L149.067 638.539L118 606.939C72.4 560.406 60.6667 545.339 44.6667 512.673C35.0667 493.206 29.4667 476.806 25.0667 455.339C22.5333 442.939 22.1333 436.406 22.1333 413.339C22.1333 398.273 22.5333 383.206 23.2 379.739L24.1333 373.473L88 373.073C150.4 372.673 151.867 372.673 155.6 369.873C160.8 365.873 161.467 358.673 156.8 354.006L153.467 350.673H85.7333C22.8 350.673 17.6 350.806 13.3333 353.073C3.73334 358.139 7.62939e-06 373.606 7.62939e-06 409.473C7.62939e-06 474.806 17.7333 524.539 60.1333 577.339C74 594.673 138.667 660.539 144 662.673C149.6 664.939 153.333 663.606 163.067 655.606C167.867 651.873 192.933 631.206 218.8 610.006C244.8 588.673 279.2 560.806 295.333 548.006C330.533 520.273 334.267 516.939 337.467 510.006C339.867 504.939 340 497.073 340 314.806V124.806L337.2 118.939C334.667 113.739 327.067 107.606 270.8 65.4727C182.8 -0.393951 183.467 0.00604248 176.8 0.00604248C173.733 0.139376 169.6 1.07274 167.467 2.1394Z" class="favicon-fill"/>
    <path d="M529.333 2.80607C526.8 4.40607 514.8 13.2061 502.667 22.5394C471.467 46.2727 393.733 104.939 386.933 109.739C383.867 112.006 380.133 116.273 378.667 119.339C376 124.806 376 127.073 376.267 316.806L376.667 508.673L379.733 513.606C381.467 516.406 389.333 523.606 397.067 529.606C431.867 556.406 505.067 616.006 536.667 643.339C559.733 663.206 560.8 664.006 566.533 664.006C570.8 664.006 573.467 661.739 599.067 636.406C651.733 584.006 675.6 553.739 692 518.273C711.6 475.739 718 434.273 712.8 382.006C710.933 362.806 708.933 357.339 702.267 353.206C698.133 350.673 695.6 350.673 628.933 350.939L559.733 351.339L557.2 354.539C552.933 359.739 554.267 368.939 559.6 371.473C560.933 372.139 590.8 372.939 626 373.339L690 374.006L691.6 386.006C693.733 403.073 693.6 424.273 691.333 441.339C684.667 488.673 666.4 528.939 633.733 568.273C620.267 584.406 568.133 637.339 565.733 637.339C564.133 637.339 546.933 623.339 533.467 611.206C532.4 610.139 532.133 608.939 532.933 607.606C533.467 606.406 546 593.206 560.8 578.273C587.467 551.206 602.267 534.273 621.067 509.739C637.6 488.006 637.467 488.406 638.267 455.473C638.933 430.539 638.8 426.673 636.8 422.406C635.467 419.606 632.933 416.939 630.8 416.006C628.4 415.073 615.333 414.406 594.4 414.273C563.867 414.006 561.467 414.139 558.8 416.539C554.8 420.273 554.933 428.406 559.333 432.673C562.533 436.006 562.667 436.006 589.333 436.006H616.133L615.733 456.406L615.333 476.806L610.667 484.406C597.333 506.539 572.8 534.939 536.8 570.406C520 586.939 512.8 593.206 511.6 592.273C471.733 560.939 402.667 505.606 401.067 503.739C398.8 501.206 398.667 490.406 398.667 316.673C398.667 135.873 398.667 132.273 401.333 129.073C402.667 127.206 418.4 114.806 436.267 101.339C454.133 87.8727 484.4 64.9394 503.733 50.4061L538.8 23.8727L547.733 30.1394C552.667 33.6061 561.467 40.1394 567.333 44.5394C634.933 95.7394 676.133 160.139 686.667 231.339C688.533 243.206 688.667 282.406 687.067 292.673L686 299.339L622.4 300.006C563.867 300.673 558.533 300.806 556.4 303.073C553.2 306.273 553.333 314.939 556.533 318.539C559.067 321.339 559.867 321.339 625.6 321.339C698.4 321.339 696.267 321.606 703.067 313.339C708.8 306.673 710 297.339 710 262.006C709.867 233.873 709.6 228.139 706.8 214.673C691.2 137.739 643.067 69.6061 566 15.0727C543.333 -0.927264 538.267 -2.6606 529.333 2.80607Z" class="favicon-fill"/>
    <path d="M167.333 82.9394C158.667 87.7394 126.933 118.139 113.2 134.673C97.6 153.339 80.4 184.139 77.4667 198.406C76.6667 202.273 76 214.406 76 225.473C76 247.339 77.0667 252.273 83.3333 257.073C86.8 259.873 88.4 260.006 112.667 260.006C138 260.006 138.267 260.006 141.867 256.673C146.133 252.673 146.4 247.073 142.533 242.273C139.867 238.806 139.6 238.673 119.6 238.406L99.3333 238.006L99.4667 219.206L99.6 200.273L105.067 188.673C112.4 173.339 122.533 158.139 135.2 142.939C146.667 129.473 171.333 106.673 174.533 106.673C175.733 106.806 197.733 122.539 223.333 141.739L270 176.673L270.667 196.406L271.333 216.273L275.2 219.606C279.733 223.473 285.467 223.073 290 218.673C292.4 216.139 292.667 213.873 293.067 194.539C293.467 175.073 293.333 172.673 290.667 167.473C288.267 162.406 281.467 156.939 238.8 124.939C211.733 104.673 187.333 86.5394 184.667 84.6728C179.2 81.0728 172 80.2728 167.333 82.9394Z" class="favicon-fill"/>
    <path d="M536.533 82.9394C534.267 83.4728 509.067 101.606 480.533 123.073C442 152.139 428.133 163.339 426.4 166.673C423.067 173.073 422.8 213.739 426 218.273C430.533 224.806 442.667 223.073 445.2 215.739C446 213.473 446.667 204.006 446.667 194.673C446.667 178.939 446.8 177.606 449.733 175.073C458.133 167.339 537.067 108.806 539.6 108.273C541.867 107.873 545.467 110.139 553.6 117.073C574.133 134.406 587.733 150.539 604.267 176.673C614.533 192.939 616.133 199.473 615.733 220.806L615.333 238.006H596.267H577.067L573.867 241.739C570.4 245.873 569.867 249.339 572.267 253.739C575.333 259.606 576.8 259.873 603.333 260.006H628.8L633.333 256.139L638 252.273V223.206V194.006L629.867 177.339C617.067 151.473 598 126.539 575.2 106.139C551.067 84.6728 544.667 80.6728 536.533 82.9394Z" class="favicon-fill"/>
    <path d="M176.4 178.673C172.4 180.273 170 184.406 166.8 195.339C161.067 214.806 160.933 244.139 166.533 268.406C174 299.873 188.133 322.806 210.667 339.873C221.733 348.139 242.267 358.939 250.4 360.673C252.667 361.073 254.667 362.006 254.667 362.673C254.667 363.339 251.467 365.606 247.733 367.873C223.2 381.873 201.733 409.606 192.267 439.206C189.333 448.806 188.933 452.406 188.8 470.673C188.667 496.539 191.333 510.139 197.6 515.339C202.8 519.739 207.467 519.606 216.8 514.673C248.4 498.006 281.2 461.606 296 426.673C304.4 406.806 306.933 393.739 307.6 367.606C308.667 333.473 305.733 319.073 291.733 289.339C272 247.339 231.333 203.073 194.667 184.139C182.533 177.873 180.133 177.206 176.4 178.673ZM204 215.873C230 234.273 256.133 265.739 270.667 296.406C277.867 311.473 283.6 327.606 282.133 328.939C280.533 330.539 262.133 310.006 245.733 288.406C228.8 266.006 226.133 263.873 219.467 266.806C215.333 268.806 212.933 274.939 214.667 279.339C216.133 283.206 238.8 312.406 247.067 321.206C250.267 324.539 257.467 331.739 263.2 336.939C268.8 342.273 272.533 346.673 271.6 346.673C267.733 346.673 250 339.873 239.733 334.406C228.267 328.273 211.867 314.139 205.467 304.806C190.267 282.539 183.333 256.406 184.267 225.339C184.533 216.139 185.2 207.873 185.733 207.073C187.067 204.939 191.867 207.206 204 215.873ZM258.533 391.606C254.667 396.673 250 402.406 248.267 404.539C244 409.739 236.8 424.539 234.667 432.406C232.667 440.139 234.267 444.273 240.133 446.806C245.2 448.806 250.133 445.739 252.933 438.939C257.733 426.806 262.667 417.473 267.467 411.206C274 402.673 284 391.606 284.8 392.273C285.067 392.673 284.133 397.339 282.533 402.806C275.467 428.406 251.733 462.939 228.267 481.606C217.467 490.139 212.533 492.939 211.067 491.606C210.667 491.073 210 484.539 209.6 476.939C208 439.606 225.333 406.273 256.667 386.806C260.4 384.539 263.867 382.673 264.4 382.673C265.067 382.673 262.4 386.673 258.533 391.606Z" class="favicon-fill"/>
    <path d="M200.667 241.206C190.133 245.606 190.133 260.406 200.8 264.806C207.067 267.473 212.4 266.273 216.667 261.073C222.267 254.406 220.8 245.873 213.333 242.006C209.067 239.873 204.8 239.606 200.667 241.206Z" class="favicon-fill"/>
    <path d="M527.067 182.006C514 187.606 479.467 214.806 466.533 229.473C433.067 267.873 414 304.806 409.2 340.939C402.533 391.073 421.867 445.473 460 483.873C474.667 498.806 496 513.073 508.933 516.673C517.2 518.939 523.6 503.339 524.933 477.339C525.733 459.739 524.133 447.073 519.2 432.139C510.667 406.673 488.133 380.139 464.133 367.473C456.8 363.606 455.733 362.673 458 361.873C502.667 345.739 528 323.739 541.2 289.473C551.867 261.739 554.4 221.873 547.2 193.739C544.133 181.339 537.467 177.473 527.067 182.006ZM531.2 206.273C533.067 214.806 533.6 236.139 532.133 247.073C525.733 299.473 500.667 330.539 452.667 345.873C434.133 351.873 434 352.539 457.733 329.073C478.267 308.806 493.6 290.539 498.4 280.406C500 276.939 500.133 275.339 498.933 272.806C497.2 269.073 491.333 266.939 488.133 268.939C486.933 269.606 480.667 277.339 474 286.139C463.067 300.673 430.933 335.473 429.6 334.139C428.267 332.673 435.467 311.073 441.867 298.006C454.8 271.606 478.267 241.473 499.6 223.739C509.2 215.739 527.467 202.806 529.467 202.673C530 202.673 530.667 204.273 531.2 206.273ZM451.067 380.806C490.533 400.806 512.533 441.606 506.667 484.006C505.867 490.273 504.933 495.606 504.667 495.873C503.6 496.806 485.6 483.073 476.133 474.139C456.933 455.739 443.067 433.473 433.867 406.006C431.333 398.539 429.333 391.473 429.333 390.539C429.333 387.739 444.533 403.473 451.333 413.339C454.667 418.139 459.2 426.539 461.467 432.006C463.6 437.473 466.133 442.673 466.933 443.606C468.933 446.006 475.333 445.739 477.867 443.206C480.933 440.273 480.533 435.739 476.4 425.606C470.4 410.539 462.267 398.273 449.467 384.939C445.467 380.806 442.533 377.339 443.067 377.339C443.6 377.339 447.2 378.939 451.067 380.806Z" class="favicon-fill"/>
    <path d="M503.2 237.873C490 243.606 492.533 260.673 506.8 262.273C511.867 262.806 513.467 262.406 516.933 259.473C522.133 255.073 523.2 250.673 520.8 244.673C519.333 241.473 517.333 239.339 514.133 238.006C508.533 235.606 508.4 235.606 503.2 237.873Z" class="favicon-fill"/>
</svg>