<?xml version="1.0" standalone="no"?>
<!DOCTYPE svg PUBLIC "-//W3C//DTD SVG 20010904//EN"
 "http://www.w3.org/TR/2001/REC-SVG-20010904/DTD/svg10.dtd">
<svg version="1.0" xmlns="http://www.w3.org/2000/svg"
 width="1024.000000pt" height="1024.000000pt" viewBox="0 0 1024.000000 1024.000000"
 preserveAspectRatio="xMidYMid meet">

<g transform="translate(0.000000,1024.000000) scale(0.100000,-0.100000)"
fill="#000000" stroke="none">
<path d="M2221 7627 c-79 -46 -73 -125 64 -812 77 -389 99 -507 156 -830 67
-381 162 -604 333 -783 99 -103 263 -202 394 -237 l44 -11 -43 -29 c-104 -68
-205 -188 -258 -307 -134 -298 -70 -713 164 -1063 178 -267 384 -408 615 -422
201 -12 373 66 575 259 51 48 121 125 156 169 l64 81 3 -157 c1 -93 -2 -173
-9 -198 -15 -56 -73 -113 -124 -122 -63 -10 -65 -12 -65 -55 l0 -40 329 0
c313 0 330 1 336 19 3 10 1 30 -4 45 -8 19 -18 26 -38 26 -40 1 -106 33 -131
64 -11 15 -25 49 -31 77 -16 74 -14 1445 2 1481 18 39 146 200 156 194 4 -3
52 -70 106 -148 263 -380 727 -1038 843 -1193 279 -373 459 -501 702 -499 80
0 106 5 165 28 143 58 277 168 388 318 182 247 279 524 280 798 1 173 -34 296
-118 425 -50 76 -168 196 -220 223 -27 14 -35 22 -25 26 8 3 44 15 80 26 180
59 349 187 457 345 126 186 182 364 263 833 28 161 89 487 136 725 116 589
124 675 68 728 -22 20 -38 24 -105 28 -90 4 -240 -12 -380 -40 -464 -92 -866
-313 -1265 -693 -182 -173 -381 -401 -698 -800 -87 -109 -285 -352 -440 -540
-155 -188 -307 -372 -336 -409 l-55 -69 -5 419 -5 418 -28 50 c-15 28 -69 109
-120 181 -615 873 -1226 1329 -1952 1455 -155 27 -390 36 -424 16z m502 -267
c287 -64 584 -209 876 -427 234 -175 546 -518 808 -888 114 -162 103 -71 103
-827 -1 -839 -8 -1013 -45 -1126 -82 -246 -347 -567 -567 -687 -72 -39 -180
-59 -242 -44 -87 20 -166 67 -249 147 -193 188 -331 477 -344 717 -10 193 40
329 167 455 153 152 321 217 675 261 94 12 174 25 179 29 17 17 -3 38 -51 54
-54 18 -184 37 -413 61 -167 18 -341 57 -432 98 -232 103 -407 342 -483 659
-13 56 -45 222 -70 368 -24 146 -71 401 -104 567 -33 166 -70 365 -81 443 -27
179 -30 175 95 166 49 -3 130 -15 178 -26z m5077 11 c15 -30 -1 -137 -96 -626
-35 -181 -80 -424 -99 -540 -65 -378 -82 -451 -147 -600 -86 -197 -236 -350
-417 -426 -132 -55 -230 -74 -610 -114 -85 -10 -183 -25 -219 -35 -67 -19
-103 -43 -87 -59 6 -5 80 -16 165 -26 359 -38 564 -114 714 -261 132 -130 193
-318 166 -515 -30 -222 -157 -480 -318 -645 -109 -112 -181 -150 -272 -141
-110 10 -237 103 -376 275 -47 59 -289 393 -538 742 -568 797 -546 765 -546
780 0 6 62 87 138 178 174 211 278 339 627 772 237 294 305 374 458 529 405
412 831 648 1307 724 14 2 51 5 82 6 47 1 59 -2 68 -18z"/>
<path d="M3080 6778 c-14 -7 -34 -31 -44 -52 -17 -35 -18 -47 -8 -109 29 -189
169 -338 419 -447 360 -157 582 -327 836 -639 21 -26 37 -20 29 12 -12 49 -75
186 -124 272 -211 369 -500 690 -781 869 -127 82 -271 123 -327 94z"/>
<path d="M3235 5849 c-64 -18 -74 -83 -22 -151 88 -116 299 -199 499 -197 152
2 168 21 86 99 -163 155 -448 282 -563 249z"/>
<path d="M3805 4536 c-232 -76 -402 -238 -422 -404 -11 -98 40 -172 120 -172
103 0 167 75 317 372 61 119 110 219 110 222 0 12 -58 4 -125 -18z"/>
<path d="M7007 6766 c-275 -97 -683 -498 -930 -912 -111 -186 -179 -344 -149
-344 6 0 38 33 71 73 86 106 285 293 390 368 110 78 221 139 366 203 276 120
425 268 455 451 15 91 -1 145 -50 170 -40 21 -74 19 -153 -9z"/>
<path d="M6870 5844 c-175 -37 -529 -279 -481 -327 20 -19 262 -15 340 6 192
52 345 179 326 268 -13 56 -80 76 -185 53z"/>
<path d="M6320 4546 c0 -28 178 -381 230 -454 27 -39 65 -83 85 -98 70 -53
166 -40 201 28 25 48 15 158 -21 228 -66 131 -287 281 -447 305 -40 6 -48 5
-48 -9z"/>
</g>
</svg>
